ffmpeg version 4.4.2-0ubuntu0.22.04.1 Copyright (c) 2000-2021 the FFmpeg developers
  built with gcc 11 (Ubuntu 11.2.0-19ubuntu1)
  configuration: --prefix=/usr --extra-version=0ubuntu0.22.04.1 --toolchain=hardened --libdir=/usr/lib/x86_64-linux-gnu --incdir=/usr/include/x86_64-linux-gnu --arch=amd64 --enable-gpl --disable-stripping --enable-gnutls --enable-ladspa --enable-libaom --enable-libass --enable-libbluray --enable-libbs2b --enable-libcaca --enable-libcdio --enable-libcodec2 --enable-libdav1d --enable-libflite --enable-libfontconfig --enable-libfreetype --enable-libfribidi --enable-libgme --enable-libgsm --enable-libjack --enable-libmp3lame --enable-libmysofa --enable-libopenjpeg --enable-libopenmpt --enable-libopus --enable-libpulse --enable-librabbitmq --enable-librubberband --enable-libshine --enable-libsnappy --enable-libsoxr --enable-libspeex --enable-libsrt --enable-libssh --enable-libtheora --enable-libtwolame --enable-libvidstab --enable-libvorbis --enable-libvpx --enable-libwebp --enable-libx265 --enable-libxml2 --enable-libxvid --enable-libzimg --enable-libzmq --enable-libzvbi --enable-lv2 --enable-omx --enable-openal --enable-opencl --enable-opengl --enable-sdl2 --enable-pocketsphinx --enable-librsvg --enable-libmfx --enable-libdc1394 --enable-libdrm --enable-libiec61883 --enable-chromaprint --enable-frei0r --enable-libx264 --enable-shared
  libavutil      56. 70.100 / 56. 70.100
  libavcodec     58.134.100 / 58.134.100
  libavformat    58. 76.100 / 58. 76.100
  libavdevice    58. 13.100 / 58. 13.100
  libavfilter     7.110.100 /  7.110.100
  libswscale      5.  9.100 /  5.  9.100
  libswresample   3.  9.100 /  3.  9.100
  libpostproc    55.  9.100 / 55.  9.100
Guessed Channel Layout for Input Stream #0.1 : mono
Input #0, rtsp, from 'rtsp://admin:9LPY%23qPyD@78.188.37.56/cam/realmonitor?channel=3&subtype=0':
  Metadata:
    title           : Media Server
  Duration: N/A, start: 0.001000, bitrate: N/A
  Stream #0:0: Video: hevc (Main), yuvj420p(pc, bt709), 1920x1080, 25 fps, 25 tbr, 90k tbn, 25 tbc
  Stream #0:1: Audio: pcm_alaw, 8000 Hz, mono, s16, 64 kb/s
Stream mapping:
  Stream #0:0 -> #0:0 (hevc (native) -> h264 (libx264))
Press [q] to stop, [?] for help
[swscaler @ 0x5d465de3c940] deprecated pixel format used, make sure you did set range correctly
[libx264 @ 0x5d465c9ccc00] using cpu capabilities: MMX2 SSE2Fast SSSE3 SSE4.2 AVX FMA3 BMI2 AVX2 AVX512
[libx264 @ 0x5d465c9ccc00] profile High, level 3.1, 4:2:0, 8-bit
[libx264 @ 0x5d465c9ccc00] 264 - core 163 r3060 5db6aa6 - H.264/MPEG-4 AVC codec - Copyleft 2003-2021 - http://www.videolan.org/x264.html - options: cabac=1 ref=3 deblock=1:0:0 analyse=0x3:0x113 me=hex subme=7 psy=1 psy_rd=1.00:0.00 mixed_ref=1 me_range=16 chroma_me=1 trellis=1 8x8dct=1 cqm=0 deadzone=21,11 fast_pskip=1 chroma_qp_offset=-2 threads=22 lookahead_threads=3 sliced_threads=0 nr=0 decimate=1 interlaced=0 bluray_compat=0 constrained_intra=0 bframes=3 b_pyramid=2 b_adapt=1 b_bias=0 direct=1 weightb=1 open_gop=0 weightp=2 keyint=250 keyint_min=25 scenecut=40 intra_refresh=0 rc_lookahead=40 rc=crf mbtree=1 crf=36.0 qcomp=0.60 qpmin=0 qpmax=69 qpstep=4 ip_ratio=1.40 aq=1:1.00
Output #0, hls, to './codec_comparison/cpu_playlist.m3u8':
  Metadata:
    title           : Media Server
    encoder         : Lavf58.76.100
  Stream #0:0: Video: h264, yuvj420p(pc, bt709, progressive), 1280x720, q=2-31, 25 fps, 90k tbn
    Metadata:
      encoder         : Lavc58.134.100 libx264
    Side data:
      cpb: bitrate max/min/avg: 0/0/0 buffer size: 0 vbv_delay: N/A
frame=    1 fps=0.0 q=0.0 size=N/A time=00:00:00.00 bitrate=N/A speed=   0x    frame=1
fps=0.00
stream_0_0_q=0.0
bitrate=N/A
total_size=N/A
out_time_us=0
out_time_ms=0
out_time=00:00:00.000000
dup_frames=0
drop_frames=0
speed=   0x
progress=continue
frame=   24 fps=0.0 q=0.0 size=N/A time=00:00:00.00 bitrate=N/A speed=   0x    frame=24
fps=0.00
stream_0_0_q=0.0
bitrate=N/A
total_size=N/A
out_time_us=0
out_time_ms=0
out_time=00:00:00.000000
dup_frames=0
drop_frames=0
speed=   0x
progress=continue
frame=   34 fps= 30 q=0.0 size=N/A time=00:00:00.00 bitrate=N/A speed=   0x    frame=34
fps=30.16
stream_0_0_q=0.0
bitrate=N/A
total_size=N/A
out_time_us=0
out_time_ms=0
out_time=00:00:00.000000
dup_frames=0
drop_frames=0
speed=   0x
progress=continue
frame=   40 fps= 24 q=0.0 size=N/A time=00:00:00.00 bitrate=N/A speed=   0x    frame=40
fps=23.98
stream_0_0_q=0.0
bitrate=N/A
total_size=N/A
out_time_us=0
out_time_ms=0
out_time=00:00:00.000000
dup_frames=0
drop_frames=0
speed=   0x
progress=continue
frame=   64 fps= 29 q=0.0 size=N/A time=00:00:00.00 bitrate=N/A speed=   0x    frame=64
fps=29.24
stream_0_0_q=0.0
bitrate=N/A
total_size=N/A
out_time_us=0
out_time_ms=0
out_time=00:00:00.000000
dup_frames=0
drop_frames=0
speed=   0x
progress=continue
frame=   77 fps= 28 q=41.0 size=N/A time=00:00:00.36 bitrate=N/A speed=0.133x    frame=77
fps=28.50
stream_0_0_q=41.0
bitrate=N/A
total_size=N/A
out_time_us=360000
out_time_ms=360000
out_time=00:00:00.360000
dup_frames=0
drop_frames=0
speed=0.133x
progress=continue
frame=   87 fps= 24 q=41.0 size=N/A time=00:00:00.76 bitrate=N/A speed=0.212x    frame=87
fps=24.32
stream_0_0_q=41.0
bitrate=N/A
total_size=N/A
out_time_us=760000
out_time_ms=760000
out_time=00:00:00.760000
dup_frames=0
drop_frames=0
speed=0.212x
progress=continue
frame=  112 fps= 27 q=41.0 size=N/A time=00:00:01.76 bitrate=N/A speed=0.428x    frame=112
fps=27.23
stream_0_0_q=41.0
bitrate=N/A
total_size=N/A
out_time_us=1760000
out_time_ms=1760000
out_time=00:00:01.760000
dup_frames=0
drop_frames=0
speed=0.428x
progress=continue
frame=  126 fps= 27 q=41.0 size=N/A time=00:00:02.32 bitrate=N/A dup=2 drop=0 speed=0.501x    frame=126
fps=27.22
stream_0_0_q=41.0
bitrate=N/A
total_size=N/A
out_time_us=2320000
out_time_ms=2320000
out_time=00:00:02.320000
dup_frames=2
drop_frames=0
speed=0.501x
progress=continue
frame=  139 fps= 25 q=41.0 size=N/A time=00:00:02.84 bitrate=N/A dup=2 drop=0 speed=0.509x    frame=139
fps=24.90
stream_0_0_q=41.0
bitrate=N/A
total_size=N/A
out_time_us=2840000
out_time_ms=2840000
out_time=00:00:02.840000
dup_frames=2
drop_frames=0
speed=0.509x
progress=continue
frame=  164 fps= 27 q=41.0 size=N/A time=00:00:03.84 bitrate=N/A dup=2 drop=0 speed=0.628x    frame=164
fps=26.81
stream_0_0_q=41.0
bitrate=N/A
total_size=N/A
out_time_us=3840000
out_time_ms=3840000
out_time=00:00:03.840000
dup_frames=2
drop_frames=0
speed=0.628x
progress=continue
frame=  177 fps= 27 q=41.0 size=N/A time=00:00:04.36 bitrate=N/A dup=2 drop=0 speed=0.657x    frame=177
fps=26.69
stream_0_0_q=41.0
bitrate=N/A
total_size=N/A
out_time_us=4360000
out_time_ms=4360000
out_time=00:00:04.360000
dup_frames=2
drop_frames=0
speed=0.657x
progress=continue
frame=  188 fps= 26 q=41.0 size=N/A time=00:00:04.80 bitrate=N/A dup=2 drop=0 speed=0.673x    frame=188
fps=26.36
stream_0_0_q=41.0
bitrate=N/A
total_size=N/A
out_time_us=4800000
out_time_ms=4800000
out_time=00:00:04.800000
dup_frames=2
drop_frames=0
speed=0.673x
progress=continue
frame=  192 fps= 25 q=41.0 size=N/A time=00:00:04.96 bitrate=N/A dup=2 drop=0 speed=0.641x    frame=192
fps=24.83
stream_0_0_q=41.0
bitrate=N/A
total_size=N/A
out_time_us=4960000
out_time_ms=4960000
out_time=00:00:04.960000
dup_frames=2
drop_frames=0
speed=0.641x
progress=continue
frame=  217 fps= 26 q=41.0 size=N/A time=00:00:05.96 bitrate=N/A dup=2 drop=0 speed=0.724x    frame=217
fps=26.36
stream_0_0_q=41.0
bitrate=N/A
total_size=N/A
out_time_us=5960000
out_time_ms=5960000
out_time=00:00:05.960000
dup_frames=2
drop_frames=0
speed=0.724x
progress=continue
frame=  230 fps= 26 q=41.0 size=N/A time=00:00:06.48 bitrate=N/A dup=2 drop=0 speed=0.739x    frame=230
fps=26.23
stream_0_0_q=41.0
bitrate=N/A
total_size=N/A
out_time_us=6480000
out_time_ms=6480000
out_time=00:00:06.480000
dup_frames=2
drop_frames=0
speed=0.739x
progress=continue
frame=  239 fps= 25 q=41.0 size=N/A time=00:00:06.84 bitrate=N/A dup=2 drop=0 speed=0.714x    frame=239
fps=24.94
stream_0_0_q=41.0
bitrate=N/A
total_size=N/A
out_time_us=6840000
out_time_ms=6840000
out_time=00:00:06.840000
dup_frames=2
drop_frames=0
speed=0.714x
progress=continue
frame=  264 fps= 26 q=41.0 size=N/A time=00:00:07.84 bitrate=N/A dup=2 drop=0 speed=0.775x    frame=264
fps=26.09
stream_0_0_q=41.0
bitrate=N/A
total_size=N/A
out_time_us=7840000
out_time_ms=7840000
out_time=00:00:07.840000
dup_frames=2
drop_frames=0
speed=0.775x
progress=continue
frame=  277 fps= 26 q=41.0 size=N/A time=00:00:08.36 bitrate=N/A dup=2 drop=0 speed=0.786x    frame=277
fps=26.04
stream_0_0_q=41.0
bitrate=N/A
total_size=N/A
out_time_us=8360000
out_time_ms=8360000
out_time=00:00:08.360000
dup_frames=2
drop_frames=0
speed=0.786x
progress=continue
frame=  287 fps= 25 q=41.0 size=N/A time=00:00:08.76 bitrate=N/A dup=2 drop=0 speed=0.757x    frame=287
fps=24.81
stream_0_0_q=41.0
bitrate=N/A
total_size=N/A
out_time_us=8760000
out_time_ms=8760000
out_time=00:00:08.760000
dup_frames=2
drop_frames=0
speed=0.757x
progress=continue
frame=  313 fps= 26 q=41.0 size=N/A time=00:00:09.80 bitrate=N/A dup=2 drop=0 speed=0.812x    frame=313
fps=25.92
stream_0_0_q=41.0
bitrate=N/A
total_size=N/A
out_time_us=9800000
out_time_ms=9800000
out_time=00:00:09.800000
dup_frames=2
drop_frames=0
speed=0.812x
progress=continue
[hls @ 0x5d465c9d0280] Opening './codec_comparison/cpu_segment_000.ts' for writing
[hls @ 0x5d465c9d0280] Opening './codec_comparison/cpu_playlist.m3u8.tmp' for writing
frame=  327 fps= 26 q=41.0 size=N/A time=00:00:10.36 bitrate=N/A dup=3 drop=0 speed=0.823x    frame=327
fps=25.98
stream_0_0_q=41.0
bitrate=N/A
total_size=N/A
out_time_us=10360000
out_time_ms=10360000
out_time=00:00:10.360000
dup_frames=3
drop_frames=0
speed=0.823x
progress=continue
frame=  337 fps= 26 q=41.0 size=N/A time=00:00:10.76 bitrate=N/A dup=3 drop=0 speed=0.821x    frame=337
fps=25.71
stream_0_0_q=41.0
bitrate=N/A
total_size=N/A
out_time_us=10760000
out_time_ms=10760000
out_time=00:00:10.760000
dup_frames=3
drop_frames=0
speed=0.821x
progress=continue
frame=  342 fps= 25 q=41.0 size=N/A time=00:00:10.96 bitrate=N/A dup=3 drop=0 speed=0.801x    frame=342
fps=25.01
stream_0_0_q=41.0
bitrate=N/A
total_size=N/A
out_time_us=10960000
out_time_ms=10960000
out_time=00:00:10.960000
dup_frames=3
drop_frames=0
speed=0.801x
progress=continue
frame=  367 fps= 26 q=41.0 size=N/A time=00:00:11.96 bitrate=N/A dup=3 drop=0 speed=0.842x    frame=367
fps=25.85
stream_0_0_q=41.0
bitrate=N/A
total_size=N/A
out_time_us=11960000
out_time_ms=11960000
out_time=00:00:11.960000
dup_frames=3
drop_frames=0
speed=0.842x
progress=continue
frame=  380 fps= 26 q=41.0 size=N/A time=00:00:12.48 bitrate=N/A dup=3 drop=0 speed=0.848x    frame=380
fps=25.82
stream_0_0_q=41.0
bitrate=N/A
total_size=N/A
out_time_us=12480000
out_time_ms=12480000
out_time=00:00:12.480000
dup_frames=3
drop_frames=0
speed=0.848x
progress=continue
frame=  390 fps= 25 q=41.0 size=N/A time=00:00:12.88 bitrate=N/A dup=3 drop=0 speed=0.826x    frame=390
fps=25.00
stream_0_0_q=41.0
bitrate=N/A
total_size=N/A
out_time_us=12880000
out_time_ms=12880000
out_time=00:00:12.880000
dup_frames=3
drop_frames=0
speed=0.826x
progress=continue
frame=  415 fps= 26 q=41.0 size=N/A time=00:00:13.88 bitrate=N/A dup=3 drop=0 speed=0.862x    frame=415
fps=25.76
stream_0_0_q=41.0
bitrate=N/A
total_size=N/A
out_time_us=13880000
out_time_ms=13880000
out_time=00:00:13.880000
dup_frames=3
drop_frames=0
speed=0.862x
progress=continue
frame=  427 fps= 26 q=41.0 size=N/A time=00:00:14.36 bitrate=N/A dup=3 drop=0 speed=0.864x    frame=427
fps=25.70
stream_0_0_q=41.0
bitrate=N/A
total_size=N/A
out_time_us=14360000
out_time_ms=14360000
out_time=00:00:14.360000
dup_frames=3
drop_frames=0
speed=0.864x
progress=continue
frame=  440 fps= 25 q=41.0 size=N/A time=00:00:14.88 bitrate=N/A dup=3 drop=0 speed=0.846x    frame=440
fps=25.03
stream_0_0_q=41.0
bitrate=N/A
total_size=N/A
out_time_us=14880000
out_time_ms=14880000
out_time=00:00:14.880000
dup_frames=3
drop_frames=0
speed=0.846x
progress=continue
frame=  463 fps= 26 q=41.0 size=N/A time=00:00:15.80 bitrate=N/A dup=3 drop=0 speed=0.873x    frame=463
fps=25.58
stream_0_0_q=41.0
bitrate=N/A
total_size=N/A
out_time_us=15800000
out_time_ms=15800000
out_time=00:00:15.800000
dup_frames=3
drop_frames=0
speed=0.873x
progress=continue
frame=  477 fps= 26 q=41.0 size=N/A time=00:00:16.36 bitrate=N/A dup=3 drop=0 speed=0.879x    frame=477
fps=25.63
stream_0_0_q=41.0
bitrate=N/A
total_size=N/A
out_time_us=16360000
out_time_ms=16360000
out_time=00:00:16.360000
dup_frames=3
drop_frames=0
speed=0.879x
progress=continue
frame=  490 fps= 25 q=41.0 size=N/A time=00:00:16.88 bitrate=N/A dup=3 drop=0 speed=0.862x    frame=490
fps=25.02
stream_0_0_q=41.0
bitrate=N/A
total_size=N/A
out_time_us=16880000
out_time_ms=16880000
out_time=00:00:16.880000
dup_frames=3
drop_frames=0
speed=0.862x
progress=continue
frame=  514 fps= 26 q=41.0 size=N/A time=00:00:17.84 bitrate=N/A dup=3 drop=0 speed=0.888x    frame=514
fps=25.59
stream_0_0_q=41.0
bitrate=N/A
total_size=N/A
out_time_us=17840000
out_time_ms=17840000
out_time=00:00:17.840000
dup_frames=3
drop_frames=0
speed=0.888x
progress=continue
frame=  527 fps= 26 q=41.0 size=N/A time=00:00:18.36 bitrate=N/A dup=3 drop=0 speed=0.891x    frame=527
fps=25.56
stream_0_0_q=41.0
bitrate=N/A
total_size=N/A
out_time_us=18360000
out_time_ms=18360000
out_time=00:00:18.360000
dup_frames=3
drop_frames=0
speed=0.891x
progress=continue
frame=  539 fps= 25 q=41.0 size=N/A time=00:00:18.84 bitrate=N/A dup=3 drop=0 speed=0.874x    frame=539
fps=25.00
stream_0_0_q=41.0
bitrate=N/A
total_size=N/A
out_time_us=18840000
out_time_ms=18840000
out_time=00:00:18.840000
dup_frames=3
drop_frames=0
speed=0.874x
progress=continue
frame=  564 fps= 26 q=41.0 size=N/A time=00:00:19.84 bitrate=N/A dup=3 drop=0 speed=0.899x    frame=564
fps=25.55
stream_0_0_q=41.0
bitrate=N/A
total_size=N/A
out_time_us=19840000
out_time_ms=19840000
out_time=00:00:19.840000
dup_frames=3
drop_frames=0
speed=0.899x
progress=continue
[hls @ 0x5d465c9d0280] Opening './codec_comparison/cpu_segment_001.ts' for writing
[hls @ 0x5d465c9d0280] Opening './codec_comparison/cpu_playlist.m3u8.tmp' for writing
frame=  577 fps= 26 q=41.0 size=N/A time=00:00:20.36 bitrate=N/A dup=3 drop=0 speed=0.901x    frame=577
fps=25.54
stream_0_0_q=41.0
bitrate=N/A
total_size=N/A
out_time_us=20360000
out_time_ms=20360000
out_time=00:00:20.360000
dup_frames=3
drop_frames=0
speed=0.901x
progress=continue
frame=  588 fps= 25 q=41.0 size=N/A time=00:00:20.80 bitrate=N/A dup=3 drop=0 speed= 0.9x    frame=588
fps=25.44
stream_0_0_q=41.0
bitrate=N/A
total_size=N/A
out_time_us=20800000
out_time_ms=20800000
out_time=00:00:20.800000
dup_frames=3
drop_frames=0
speed= 0.9x
progress=continue
frame=  592 fps= 25 q=41.0 size=N/A time=00:00:20.96 bitrate=N/A dup=3 drop=0 speed=0.887x    frame=592
fps=25.06
stream_0_0_q=41.0
bitrate=N/A
total_size=N/A
out_time_us=20960000
out_time_ms=20960000
out_time=00:00:20.960000
dup_frames=3
drop_frames=0
speed=0.887x
progress=continue
frame=  615 fps= 25 q=41.0 size=N/A time=00:00:21.88 bitrate=N/A dup=3 drop=0 speed=0.905x    frame=615
fps=25.45
stream_0_0_q=41.0
bitrate=N/A
total_size=N/A
out_time_us=21880000
out_time_ms=21880000
out_time=00:00:21.880000
dup_frames=3
drop_frames=0
speed=0.905x
progress=continue
frame=  629 fps= 25 q=41.0 size=N/A time=00:00:22.44 bitrate=N/A dup=3 drop=0 speed=0.909x    frame=629
fps=25.49
stream_0_0_q=41.0
bitrate=N/A
total_size=N/A
out_time_us=22440000
out_time_ms=22440000
out_time=00:00:22.440000
dup_frames=3
drop_frames=0
speed=0.909x
progress=continue
frame=  640 fps= 25 q=41.0 size=N/A time=00:00:22.88 bitrate=N/A dup=3 drop=0 speed=0.894x    frame=640
fps=25.00
stream_0_0_q=41.0
bitrate=N/A
total_size=N/A
out_time_us=22880000
out_time_ms=22880000
out_time=00:00:22.880000
dup_frames=3
drop_frames=0
speed=0.894x
progress=continue
frame=  665 fps= 25 q=41.0 size=N/A time=00:00:23.88 bitrate=N/A dup=3 drop=0 speed=0.914x    frame=665
fps=25.46
stream_0_0_q=41.0
bitrate=N/A
total_size=N/A
out_time_us=23880000
out_time_ms=23880000
out_time=00:00:23.880000
dup_frames=3
drop_frames=0
speed=0.914x
progress=continue
frame=  678 fps= 25 q=41.0 size=N/A time=00:00:24.40 bitrate=N/A dup=3 drop=0 speed=0.915x    frame=678
fps=25.43
stream_0_0_q=41.0
bitrate=N/A
total_size=N/A
out_time_us=24400000
out_time_ms=24400000
out_time=00:00:24.400000
dup_frames=3
drop_frames=0
speed=0.915x
progress=continue
frame=  690 fps= 25 q=41.0 size=N/A time=00:00:24.88 bitrate=N/A dup=3 drop=0 speed=0.902x    frame=690
fps=25.00
stream_0_0_q=41.0
bitrate=N/A
total_size=N/A
out_time_us=24880000
out_time_ms=24880000
out_time=00:00:24.880000
dup_frames=3
drop_frames=0
speed=0.902x
progress=continue
frame=  714 fps= 25 q=41.0 size=N/A time=00:00:25.84 bitrate=N/A dup=3 drop=0 speed=0.919x    frame=714
fps=25.41
stream_0_0_q=41.0
bitrate=N/A
total_size=N/A
out_time_us=25840000
out_time_ms=25840000
out_time=00:00:25.840000
dup_frames=3
drop_frames=0
speed=0.919x
progress=continue
frame=  726 fps= 25 q=41.0 size=N/A time=00:00:26.32 bitrate=N/A dup=3 drop=0 speed=0.92x    frame=726
fps=25.37
stream_0_0_q=41.0
bitrate=N/A
total_size=N/A
out_time_us=26320000
out_time_ms=26320000
out_time=00:00:26.320000
dup_frames=3
drop_frames=0
speed=0.92x
progress=continue
frame=  737 fps= 25 q=41.0 size=N/A time=00:00:26.76 bitrate=N/A dup=3 drop=0 speed=0.919x    frame=737
fps=25.30
stream_0_0_q=41.0
bitrate=N/A
total_size=N/A
out_time_us=26760000
out_time_ms=26760000
out_time=00:00:26.760000
dup_frames=3
drop_frames=0
speed=0.919x
progress=continue
frame=  743 fps= 25 q=41.0 size=N/A time=00:00:27.00 bitrate=N/A dup=3 drop=0 speed=0.908x    frame=743
fps=24.99
stream_0_0_q=41.0
bitrate=N/A
total_size=N/A
out_time_us=27000000
out_time_ms=27000000
out_time=00:00:27.000000
dup_frames=3
drop_frames=0
speed=0.908x
progress=continue
[hls @ 0x5d465c9d0280] Opening './codec_comparison/cpu_segment_002.ts' for writing
[hls @ 0x5d465c9d0280] Opening './codec_comparison/cpu_playlist.m3u8.tmp' for writing
frame=  750 fps= 25 q=-1.0 Lsize=N/A time=00:00:29.92 bitrate=N/A dup=3 drop=0 speed=   1x    
frame=750
fps=25.11
stream_0_0_q=-1.0
bitrate=N/A
total_size=N/A
out_time_us=29920000
out_time_ms=29920000
out_time=00:00:29.920000
dup_frames=3
drop_frames=0
speed=   1x
progress=end
video:359kB audio:0kB subtitle:0kB other streams:0kB global headers:0kB muxing overhead: unknown
[libx264 @ 0x5d465c9ccc00] frame I:3     Avg QP:32.01  size: 74501
[libx264 @ 0x5d465c9ccc00] frame P:323   Avg QP:35.73  size:   336
[libx264 @ 0x5d465c9ccc00] frame B:424   Avg QP:45.94  size:    82
[libx264 @ 0x5d465c9ccc00] consecutive B-frames: 16.5% 19.7% 13.6% 50.1%
[libx264 @ 0x5d465c9ccc00] mb I  I16..4: 14.9% 41.9% 43.2%
[libx264 @ 0x5d465c9ccc00] mb P  I16..4:  0.0%  0.0%  0.0%  P16..4:  1.3%  0.3%  0.3%  0.0%  0.0%    skip:98.0%
[libx264 @ 0x5d465c9ccc00] mb B  I16..4:  0.0%  0.0%  0.0%  B16..8:  0.9%  0.0%  0.0%  direct: 0.0%  skip:99.1%  L0:20.7% L1:79.0% BI: 0.4%
[libx264 @ 0x5d465c9ccc00] 8x8 transform intra:41.7% inter:62.4%
[libx264 @ 0x5d465c9ccc00] coded y,uvDC,uvAC intra: 67.6% 47.5% 17.4% inter: 0.2% 0.2% 0.0%
[libx264 @ 0x5d465c9ccc00] i16 v,h,dc,p: 49% 12%  9% 30%
[libx264 @ 0x5d465c9ccc00] i8 v,h,dc,ddl,ddr,vr,hd,vl,hu: 26%  9% 15%  4% 11% 14%  7%  8%  5%
[libx264 @ 0x5d465c9ccc00] i4 v,h,dc,ddl,ddr,vr,hd,vl,hu: 25% 14% 12%  5% 10% 11%  9%  9%  5%
[libx264 @ 0x5d465c9ccc00] i8c dc,h,v,p: 65% 12% 19%  4%
[libx264 @ 0x5d465c9ccc00] Weighted P-Frames: Y:0.0% UV:0.0%
[libx264 @ 0x5d465c9ccc00] ref P L0: 80.5% 13.4%  4.5%  1.6%
[libx264 @ 0x5d465c9ccc00] ref B L0: 80.3% 18.0%  1.8%
[libx264 @ 0x5d465c9ccc00] ref B L1: 94.6%  5.4%
[libx264 @ 0x5d465c9ccc00] kb/s:97.83
